<?xml version="1.0" standalone="no"?>
<!DOCTYPE svg PUBLIC "-//W3C//DTD SVG 20010904//EN"
 "http://www.w3.org/TR/2001/REC-SVG-20010904/DTD/svg10.dtd">
<svg version="1.0" xmlns="http://www.w3.org/2000/svg"
 width="434.000000pt" height="502.000000pt" viewBox="0 0 434.000000 502.000000"
 preserveAspectRatio="xMidYMid meet">
<metadata>
Created by potrace 1.15, written by Peter Selinger 2001-2017
</metadata>
<g transform="translate(0.000000,502.000000) scale(0.100000,-0.100000)"
fill="#000000" stroke="none">
<path d="M1425 5001 c-166 -48 -295 -157 -373 -316 -58 -117 -56 -80 -62 -925
-6 -717 -8 -790 -24 -840 -49 -149 -153 -261 -296 -317 -38 -14 -93 -18 -355
-23 l-310 -5 0 -65 0 -65 310 -5 c262 -5 317 -9 355 -23 143 -56 247 -168 296
-317 16 -50 18 -123 24 -840 5 -606 9 -794 19 -825 38 -117 121 -241 205 -308
96 -75 230 -127 330 -127 l46 0 0 69 0 68 -63 5 c-199 16 -372 199 -397 419
-6 46 -10 399 -10 789 0 782 2 760 -66 898 -40 81 -130 185 -200 229 -24 15
-44 30 -44 33 0 3 20 18 44 33 70 44 160 148 200 229 68 138 66 116 66 898 0
390 4 743 10 789 25 218 193 397 393 419 l62 7 3 68 3 67 -53 -1 c-29 0 -80
-8 -113 -18z"/>
<path d="M2750 4951 l0 -68 63 -5 c199 -16 372 -199 397 -419 6 -46 10 -399
10 -789 0 -782 -2 -760 66 -898 40 -81 130 -185 200 -229 24 -15 44 -30 44
-33 0 -3 -20 -18 -44 -33 -70 -44 -160 -148 -200 -229 -68 -138 -66 -116 -66
-898 0 -390 -4 -743 -10 -789 -25 -218 -193 -397 -393 -419 l-62 -7 -3 -67 -3
-68 47 0 c100 0 234 52 330 127 84 67 167 191 205 308 10 31 14 219 19 825 6
717 8 790 24 840 49 149 153 261 296 317 38 14 93 18 355 23 l310 5 0 65 0 65
-310 5 c-262 5 -317 9 -355 23 -143 56 -247 168 -296 317 -16 50 -18 123 -24
840 -5 606 -9 794 -19 825 -38 117 -121 241 -205 308 -96 75 -230 127 -330
127 l-46 0 0 -69z"/>
<path d="M1755 3153 c-11 -3 -32 -17 -47 -31 l-28 -26 0 -632 0 -633 23 -26
c28 -34 93 -47 162 -34 91 17 89 11 95 317 l5 267 225 0 225 0 5 -265 c3 -146
9 -271 13 -278 29 -44 171 -61 223 -27 55 36 55 33 52 693 -3 646 -2 631 -51
661 -29 19 -119 25 -159 12 -72 -24 -72 -26 -78 -290 l-5 -236 -225 0 -225 0
-5 236 c-5 258 -6 260 -67 286 -31 13 -97 16 -138 6z"/>
</g>
</svg>
